<?xml version="1.0" encoding="UTF-8"?>
<svg width="550px" height="550px" viewBox="0 0 550 550" version="1.1" xmlns="http://www.w3.org/2000/svg" xmlns:xlink="http://www.w3.org/1999/xlink">
    <title>anti@2x</title>
    <g id="anti" stroke="none" stroke-width="1" fill="none" fill-rule="evenodd">
        <rect id="矩形" fill="#707DFE" x="0" y="0" width="550" height="550"></rect>
        <g id="编组" transform="translate(75.000000, 63.713975)">
            <path d="M264.17115,303.719121 C291.271652,303.24585 306.263182,306.497407 309.145743,313.473792 C313.53219,324.08989 316.443167,342.949978 317.878673,370.054055" id="直线-8" stroke-opacity="0.25" stroke="#000000" stroke-width="13" stroke-linecap="round"></path>
            <path d="M133.177191,289.746432 C135.446271,300.108081 136.696682,307.508562 136.928424,311.947876 C137.743715,327.565809 136.650116,340.851363 137.1408,348.311365 C139.049047,377.32297 141.287856,391.254638 149.096985,400.585885 C161.202391,415.05082 189.663125,416.52923 234.479186,405.021116" id="直线-9" stroke-opacity="0.25" stroke="#000000" stroke-width="14" stroke-linecap="round"></path>
            <path d="M255.297971,261.073554 L202.167343,219.020727 C173.407327,215.418957 150.629501,203.916921 133.833863,184.514619 C102.577107,148.40685 106.943573,112.881182 146.933259,77.9376155 C48.9777529,151.026635 2.48204816e-14,187.571144 2.48204816e-14,187.571144 C2.48204816e-14,285.004877 44.9097111,353.28542 133.90905,379.366587 C140.650783,381.342245 102.635593,358.595198 101.322411,306.914482 C100.197946,262.660803 127.330326,253.062722 134.782343,246.484602 C141.918464,240.185334 170.918074,264.734799 201.628091,269.093672 C226.392283,272.608616 244.282243,269.935243 255.297971,261.073554 Z" id="椭圆形" fill-opacity="0.25" fill="#000000"></path>
            <path d="M199.970871,247.902723 C217.291775,253.24074 277.66585,269.968118 294.410692,254.987326 C313.554672,237.860143 296.667509,175.630241 275.919264,143.171182 C261.975167,121.356698 203.49589,60.3653282 161.958602,71.8068463 C139.763204,77.9206073 106.412533,117.366629 110.034925,167.048757 C112.838473,205.500196 172.462599,239.425128 199.970871,247.902723 Z" id="椭圆形" stroke="#150099" stroke-width="13"></path>
            <path d="M197.800878,203.290419 C199.751041,219.879846 210.102006,234.100825 228.85377,245.953355 C240.95836,253.60437 260.590458,257.722545 287.750063,258.307882" id="直线" stroke="#150099" stroke-width="12" stroke-linecap="round"></path>
            <path d="M225.746256,84.5225634 C247.492564,52.2754019 263.9746,36.6948887 275.192365,37.7810236 C290.606002,39.2734146 307.309102,56.8916116 325.301664,90.6356148" id="直线-2" stroke="#150099" stroke-width="11" stroke-linecap="round"></path>
            <path d="M201.29405,74.0430467 C205.45575,53.9766903 213.204856,43.6359354 224.541367,43.020782 C239.955004,42.1843914 263.935546,59.5114908 296.482993,95.0020801" id="直线-2" stroke="#150099" stroke-width="11" stroke-linecap="round"></path>
            <circle id="椭圆形" stroke="#150099" fill="#150099" cx="185.138128" cy="149.582896" r="13.9726889"></circle>
            <circle id="椭圆形" stroke="#150099" fill="#150099" cx="297.792933" cy="98.0586058" r="9.60622365"></circle>
            <circle id="椭圆形" stroke="#150099" fill="#150099" cx="325.738311" cy="92.8188475" r="9.60622365"></circle>
            <path d="M137.543657,216.389815 C97.7241066,237.802164 78.0095004,267.641695 78.3998382,305.908408 C78.9718977,361.990194 134.785449,390.187242 134.785449,390.187242" id="直线-3" stroke="#150099" stroke-width="13" stroke-linecap="round"></path>
            <path d="M251.945047,258.307882 C261.697842,287.421283 263.659974,311.873488 257.831442,331.664499 C252.512559,349.724974 238.906521,366.026445 217.013325,380.56891" id="直线-4" stroke="#150099" stroke-width="13" stroke-linecap="round"></path>
            <path d="M130.557312,285.379967 C129.153141,354.97704 133.00425,395.707795 142.11064,407.572229 C158.370441,428.756622 230.414834,423.849821 236.874367,407.572229 C239.347818,401.339298 240.199445,394.773354 234.448236,384.966506 C228.448576,374.736004 184.939395,390.261513 175.217986,380.261809 C157.336302,361.868226 164.615742,308.085586 164.615742,308.085586" id="直线-5" stroke="#150099" stroke-width="13" stroke-linecap="round"></path>
            <path d="M262.424564,287.126553 C297.645375,286.253489 317.088628,287.561046 320.754324,291.049226 C335.114767,304.714243 336.848323,360.034797 334.929065,365.526213 C331.895698,374.205337 319.68478,377.770085 313.622488,372.209522 C305.384056,364.65292 311.410501,325.614636 300.297193,313.260346 C297.681916,310.353031 284.61681,309.080196 261.101874,309.441841" id="直线-6" stroke="#150099" stroke-width="13" stroke-linecap="round"></path>
            <path d="M134.050485,390.175134 C45.4943574,335.130518 1.21629381,267.741403 1.21629381,188.007791 C1.21629381,68.4073722 117.02127,0 207.407101,0 C297.792933,0 400,70.9512711 400,184.514619 C400,244.636084 385.216825,302.025642 336.438028,340.210307 C336.438028,356.885733 337.253471,370.390944 330.538797,372.673934 C329.235248,373.11714 320.711146,377.82717 316.132087,374.877443 C311.306077,371.768635 310.431709,360.918895 309.712092,358.438274 C296.062284,366.57058 272.440138,377.149533 238.845652,390.175134" id="直线-7" stroke="#150099" stroke-width="14" stroke-linecap="round"></path>
        </g>
        <rect id="矩形" fill="#150099" x="-74" y="0" width="646" height="33"></rect>
        <rect id="矩形" fill="#150099" x="0" y="517" width="646" height="33"></rect>
    </g>
</svg>