<svg height="550" viewBox="0 0 550 550" width="550" xmlns="http://www.w3.org/2000/svg"><g fill="none" fill-rule="evenodd"><path d="m0 0h550v550h-550z" fill="#707dfe"/><g transform="translate(75 63.713975)"><path d="m264.17115 303.719121c27.100502-.473271 42.092032 2.778286 44.974593 9.754671 4.386447 10.616098 7.297424 29.476186 8.73293 56.580263" stroke="#000" stroke-linecap="round" stroke-opacity=".25" stroke-width="13"/><path d="m133.177191 289.746432c2.26908 10.361649 3.519491 17.76213 3.751233 22.201444.815291 15.617933-.278308 28.903487.212376 36.363489 1.908247 29.011605 4.147056 42.943273 11.956185 52.27452 12.105406 14.464935 40.56614 15.943345 85.382201 4.435231" stroke="#000" stroke-linecap="round" stroke-opacity=".25" stroke-width="14"/><path d="m255.297971 261.073554-53.130628-42.052827c-28.760016-3.60177-51.537842-15.103806-68.33348-34.506108-31.256756-36.107769-26.89029-71.633437 13.099396-106.5770035-97.9555061 73.0890195-146.933259 109.6335285-146.933259 109.6335285 0 97.433733 44.9097111 165.714276 133.90905 191.795443 6.741733 1.975658-31.273457-20.771389-32.586639-72.452105-1.124465-44.253679 26.007915-53.85176 33.459932-60.42988 7.136121-6.299268 36.135731 18.250197 66.845748 22.60907 24.764192 3.514944 42.654152.841571 53.66988-8.020118z" fill="#000" fill-opacity=".25"/><g stroke="#150099"><path d="m199.970871 247.902723c17.320904 5.338017 77.694979 22.065395 94.439821 7.084603 19.14398-17.127183 2.256817-79.357085-18.491428-111.816144-13.944097-21.814484-72.423374-82.8058538-113.960662-71.3643357-22.195398 6.113761-55.546069 45.5597827-51.923677 95.2419107 2.803548 38.451439 62.427674 72.376371 89.935946 80.853966z" stroke-width="13"/><path d="m197.800878 203.290419c1.950163 16.589427 12.301128 30.810406 31.052892 42.662936 12.10459 7.651015 31.736688 11.76919 58.896293 12.354527" stroke-linecap="round" stroke-width="12"/><path d="m225.746256 84.5225634c21.746308-32.2471615 38.228344-47.8276747 49.446109-46.7415398 15.413637 1.492391 32.116737 19.110588 50.109299 52.8545912" stroke-linecap="round" stroke-width="11"/><path d="m201.29405 74.0430467c4.1617-20.0663564 11.910806-30.4071113 23.247317-31.0222647 15.413637-.8363906 39.394179 16.4907088 71.941626 51.9812981" stroke-linecap="round" stroke-width="11"/><circle cx="185.138128" cy="149.582896" fill="#150099" r="13.972689"/><circle cx="297.792933" cy="98.058606" fill="#150099" r="9.606224"/><circle cx="325.738311" cy="92.818848" fill="#150099" r="9.606224"/><path d="m137.543657 216.389815c-39.8195504 21.412349-59.5341566 51.25188-59.1438188 89.518593.5720595 56.081786 56.3856108 84.278834 56.3856108 84.278834" stroke-linecap="round" stroke-width="13"/><path d="m251.945047 258.307882c9.752795 29.113401 11.714927 53.565606 5.886395 73.356617-5.318883 18.060475-18.924921 34.361946-40.818117 48.904411" stroke-linecap="round" stroke-width="13"/><path d="m130.557312 285.379967c-1.404171 69.597073 2.446938 110.327828 11.553328 122.192262 16.259801 21.184393 88.304194 16.277592 94.763727 0 2.473451-6.232931 3.325078-12.798875-2.426131-22.605723-5.99966-10.230502-49.508841 5.295007-59.23025-4.704697-17.881684-18.393583-10.602244-72.176223-10.602244-72.176223" stroke-linecap="round" stroke-width="13"/><path d="m262.424564 287.126553c35.220811-.873064 54.664064.434493 58.32976 3.922673 14.360443 13.665017 16.093999 68.985571 14.174741 74.476987-3.033367 8.679124-15.244285 12.243872-21.306577 6.683309-8.238432-7.556602-2.211987-46.594886-13.325295-58.949176-2.615277-2.907315-15.680383-4.18015-39.195319-3.818505" stroke-linecap="round" stroke-width="13"/><path d="m134.050485 390.175134c-88.5561276-55.044616-132.83419119-122.433731-132.83419119-202.167343 0-119.6004188 115.80497619-188.007791 206.19080719-188.007791 90.385832 0 192.592899 70.9512711 192.592899 184.514619 0 60.121465-14.783175 117.511023-63.561972 155.695688 0 16.675426.815443 30.180637-5.899231 32.463627-1.303549.443206-9.827651 5.153236-14.40671 2.203509-4.82601-3.108808-5.700378-13.958548-6.419995-16.439169-13.649808 8.132306-37.271954 18.711259-70.86644 31.73686" stroke-linecap="round" stroke-width="14"/></g></g><g fill="#150099"><path d="m-74 0h646v33h-646z"/><path d="m0 517h646v33h-646z"/></g></g></svg>